<svg xmlns="http://www.w3.org/2000/svg" width="20" height="20" fill="currentColor" viewBox="0 0 20 20">
  <path fill="currentColor" d="M13.976 9.519a1.052 1.052 0 0 1 .901.52c.094.16.141.333.141.52 0 .188-.047.362-.14.522a1.054 1.054 0 0 1-.902.52c-.187 0-.36-.046-.52-.14a1.051 1.051 0 0 1-.522-.901 1.05 1.05 0 0 1 1.042-1.041ZM6.367 6.227c.229 0 .428.084.595.25.159.16.239.355.239.584v.833h.833c.229 0 .423.083.583.25a.78.78 0 0 1 .25.584.813.813 0 0 1-.25.593.795.795 0 0 1-.583.24H7.2v.833c0 .229-.08.428-.24.594a.831.831 0 0 1-.594.24.795.795 0 0 1-.583-.24.814.814 0 0 1-.25-.594V9.56H4.7a.832.832 0 0 1-.595-.24.83.83 0 0 1-.24-.593c0-.23.08-.425.24-.584a.813.813 0 0 1 .595-.25h.833V7.06c0-.23.083-.424.25-.583a.778.778 0 0 1 .583-.251Zm5.868 1.459a1.053 1.053 0 0 1 .901.52c.094.16.141.333.141.52 0 .188-.047.362-.14.522a1.054 1.054 0 0 1-.902.52c-.187 0-.36-.046-.52-.14a1.051 1.051 0 0 1-.522-.901 1.05 1.05 0 0 1 1.042-1.041Zm3.335 0c.186 0 .36.047.52.14a1.051 1.051 0 0 1 .52.9c0 .188-.047.362-.14.522a1.053 1.053 0 0 1-.9.52c-.188 0-.363-.046-.522-.14a1.051 1.051 0 0 1-.52-.901c0-.188.046-.361.14-.521a1.051 1.051 0 0 1 .901-.52Zm-1.594-1.833a1.053 1.053 0 0 1 .901.52c.094.16.141.333.141.52 0 .188-.047.362-.14.522a1.054 1.054 0 0 1-.902.52c-.187 0-.36-.046-.52-.14a1.051 1.051 0 0 1-.522-.901 1.05 1.05 0 0 1 1.042-1.041Z"/>
  <path fill="currentColor" fill-rule="evenodd" d="M13.594 2.583c1.354 0 2.527.367 3.448 1.161.927.793 1.47 1.9 1.678 3.245l.844 5.448c.14.896.083 1.74-.205 2.507l.001.001a3.664 3.664 0 0 1-1.435 1.836l-.006.004c-.677.44-1.467.642-2.336.642-.65 0-1.249-.093-1.772-.306a3.31 3.31 0 0 1-1.357-1.03c-.357-.45-.648-1.02-.888-1.679l-.002-.004-.264-.742H8.7l-.265.742-.002.004c-.24.66-.53 1.229-.887 1.679a3.31 3.31 0 0 1-1.358 1.03c-.524.213-1.126.306-1.782.306-.866 0-1.654-.198-2.33-.628l-.004-.002A3.638 3.638 0 0 1 .634 15.01l-.003-.007c-.283-.753-.34-1.582-.206-2.46v-.001L1.28 6.99c.209-1.343.748-2.452 1.668-3.246l.003-.002c.927-.792 2.101-1.159 3.456-1.159h7.188Zm-7.188 1.5c-1.076 0-1.88.286-2.481.8-.593.512-.997 1.264-1.164 2.336l-.853 5.55c-.102.674-.049 1.233.125 1.7l.072.17c.18.384.439.675.777.894l.152.09c.368.194.817.304 1.372.304.524 0 .922-.074 1.218-.195.282-.114.53-.3.746-.573.226-.285.448-.695.652-1.256l.313-.875.008-.02c.07-.18.182-.39.374-.556.248-.223.547-.286.794-.286h2.978c.236 0 .519.059.76.259l.034.027c.192.166.304.377.374.557l.008.02.312.874c.204.56.427.971.653 1.256.216.273.464.458.746.573.296.12.691.195 1.207.195.628 0 1.121-.144 1.513-.398.396-.262.68-.62.856-1.1l.003-.007c.181-.48.236-1.057.127-1.754l-.844-5.45c-.166-1.07-.574-1.823-1.174-2.335l-.002-.003c-.593-.511-1.393-.797-2.469-.797H6.407Z" clip-rule="evenodd"/>
</svg>
