<svg xmlns="http://www.w3.org/2000/svg" width="16" height="16" fill="currentColor" viewBox="0 0 16 16">
  <path d="m8.55 7.568.124.028 5.16 1.548.137.054c.606.294.645 1.165.068 1.512l-.133.066-2.236.894-.894 2.236c-.285.713-1.263.714-1.578.065l-.054-.138-1.548-5.16a.866.866 0 0 1 .954-1.105ZM10 12.983l.715-1.787.037-.08a.865.865 0 0 1 .445-.402L12.983 10 8.721 8.72l1.278 4.262ZM4.723 10.38a.532.532 0 0 1 .752.752l-1.414 1.414a.532.532 0 1 1-.752-.752l1.414-1.414ZM2.27 5.86l1.932.517.1.039a.533.533 0 0 1-.269 1.007l-.106-.018-1.932-.517-.101-.039a.532.532 0 0 1 .27-1.006l.106.017Zm9.608-2.62a.532.532 0 0 1 .668.82l-1.414 1.414a.532.532 0 1 1-.752-.752l1.414-1.414.084-.068ZM6.237 1.618a.532.532 0 0 1 .652.377l.518 1.932.017.106a.533.533 0 0 1-1.007.27l-.039-.101-.517-1.932-.017-.106a.532.532 0 0 1 .393-.546Z"/>
</svg>
